<svg width="70" height="70" viewBox="0 0 70 70" fill="none" xmlns="http://www.w3.org/2000/svg">
<circle cx="34.75" cy="34.75" r="27.75" stroke="#226BDB" stroke-width="2"/>
<path d="M38.378 39.3594L31.9893 45.7481L38.378 52.1369" stroke="#226BDB" stroke-width="2"/>
<path d="M44.8654 28.9788C45.8467 30.6785 46.3633 32.6065 46.3633 34.569C46.3633 36.5316 45.8467 38.4596 44.8654 40.1592C43.8841 41.8588 42.4727 43.2702 40.7731 44.2515C39.0735 45.2327 37.1455 45.7493 35.1829 45.7493" stroke="#226BDB" stroke-width="2" stroke-linecap="round"/>
<path d="M31.9853 29.7773L38.374 23.3886L31.9853 16.9998" stroke="#226BDB" stroke-width="2"/>
<path d="M25.4979 40.1579C24.5166 38.4583 24 36.5303 24 34.5677C24 32.6051 24.5166 30.6772 25.4979 28.9775C26.4792 27.2779 27.8905 25.8665 29.5902 24.8853C31.2898 23.904 33.2178 23.3874 35.1803 23.3874" stroke="#226BDB" stroke-width="2" stroke-linecap="round"/>
</svg>
