<svg width="70" height="70" viewBox="0 0 70 70" fill="none" xmlns="http://www.w3.org/2000/svg">
<path d="M45.1055 20C45.1055 25.4814 40.4468 30 34.6055 30C28.7641 30 24.1055 25.4814 24.1055 20C24.1055 14.5186 28.7641 10 34.6055 10C40.4468 10 45.1055 14.5186 45.1055 20Z" stroke="#226BDB" stroke-width="2" stroke-linecap="round"/>
<path d="M41.5717 13.3837C42.4847 12.0915 43.7604 11.099 45.2375 10.5317C46.7146 9.96451 48.3267 9.84803 49.87 10.197C51.4133 10.546 52.8184 11.3448 53.9077 12.4924C54.997 13.64 55.7216 15.0848 55.9897 16.6441C56.2579 18.2035 56.0576 19.8074 55.4143 21.2529C54.7709 22.6985 53.7133 23.9208 52.3753 24.7653C51.0373 25.6097 49.4788 26.0385 47.8971 25.9973C46.3154 25.9561 44.7814 25.4468 43.4892 24.5338" stroke="#226BDB" stroke-width="2"/>
<path d="M27.064 12.6626C26.0334 11.5122 24.6918 10.6846 23.2012 10.2799C21.7106 9.87526 20.1347 9.91073 18.6639 10.3821C17.193 10.8534 15.89 11.7405 14.9122 12.9361C13.9345 14.1318 13.3237 15.585 13.1537 17.1201C12.9838 18.6553 13.2619 20.2069 13.9544 21.5875C14.6469 22.9681 15.7243 24.1187 17.0565 24.9003C18.3886 25.682 19.9186 26.0613 21.4616 25.9925C23.0046 25.9237 24.4948 25.4097 25.752 24.5125" stroke="#226BDB" stroke-width="2"/>
<path d="M34.6055 37C50.2878 37 53.9733 50.4599 54.8394 56.7862C55.0818 58.5569 53.6567 60 51.8696 60H17.3414C15.5542 60 14.1291 58.5569 14.3715 56.7862C15.2377 50.4599 18.9232 37 34.6055 37Z" stroke="#226BDB" stroke-width="2" stroke-linecap="round"/>
<path d="M62.0398 48.5848L63.0135 48.357L62.0398 48.5848ZM38.6367 37.4268L37.8984 36.7524L36.6571 38.1113L38.4726 38.4132L38.6367 37.4268ZM53.9796 52.0992L53.0189 52.377L53.2278 53.0992H53.9796V52.0992ZM47.6779 34.3594C52.0124 34.3594 55.0126 36.575 57.1275 39.5205C59.2624 42.4937 60.4438 46.1532 61.0661 48.8127L63.0135 48.357C62.366 45.59 61.1093 41.6368 58.7521 38.354C56.375 35.0433 52.8292 32.3594 47.6779 32.3594V34.3594ZM39.3751 38.1012C41.3859 35.8998 44.0594 34.3594 47.6779 34.3594V32.3594C43.4039 32.3594 40.22 34.2108 37.8984 36.7524L39.3751 38.1012ZM38.4726 38.4132C47.5745 39.9271 51.3948 46.7611 53.0189 52.377L54.9402 51.8214C53.2181 45.8665 49.0015 38.137 38.8008 36.4403L38.4726 38.4132ZM59.0941 51.0992H53.9796V53.0992H59.0941V51.0992ZM61.0661 48.8127C61.3378 49.9739 60.4439 51.0992 59.0941 51.0992V53.0992C61.5731 53.0992 63.6142 50.9238 63.0135 48.357L61.0661 48.8127Z" fill="#226BDB"/>
<path d="M30.4806 37.427L30.6447 38.4134L32.4601 38.1114L31.219 36.7525L30.4806 37.427ZM7.07731 48.5848L6.10362 48.3569H6.10362L7.07731 48.5848ZM15.1388 52.0992V53.0992H15.8906L16.0994 52.377L15.1388 52.0992ZM21.4393 34.3594C25.0579 34.3594 27.7314 35.8999 29.7423 38.1014L31.219 36.7525C28.8974 34.2109 25.7134 32.3594 21.4393 32.3594V34.3594ZM8.05101 48.8126C8.67335 46.1532 9.85474 42.4937 11.9896 39.5204C14.1046 36.575 17.1048 34.3594 21.4393 34.3594V32.3594C16.288 32.3594 12.7422 35.0433 10.365 38.3539C8.00784 41.6368 6.75113 45.59 6.10362 48.3569L8.05101 48.8126ZM10.023 51.0992C8.67323 51.0992 7.77926 49.9739 8.05101 48.8126L6.10362 48.3569C5.50293 50.9238 7.544 53.0992 10.023 53.0992V51.0992ZM15.1388 51.0992H10.023V53.0992H15.1388V51.0992ZM16.0994 52.377C17.7235 46.7613 21.5436 39.9276 30.6447 38.4134L30.3165 36.4405C20.1165 38.1375 15.9002 45.8667 14.1782 51.8214L16.0994 52.377Z" fill="#226BDB"/>
</svg>
